<svg width="850" height="77" viewBox="0 0 850 77" fill="none" xmlns="http://www.w3.org/2000/svg">
<path fill-rule="evenodd" clip-rule="evenodd" d="M839.519 33.9554C840.024 14.6095 819.568 -0.333035 795.715 3.63095C789.635 4.96974 784.964 8.88387 782.959 13.3972C781.18 17.399 781.455 21.9246 784.818 25.7929C784.31 24.6298 784.028 23.3452 784.028 21.9949C784.028 16.7482 788.281 12.4949 793.528 12.4949C798.775 12.4949 803.028 16.7482 803.028 21.9949C803.028 22.5765 802.976 23.1459 802.876 23.6987C802.685 27.4477 800.5 30.357 797.4 31.8067C793.437 33.6596 788.166 33.0575 784.011 29.2533C778.512 24.2182 777.749 17.733 780.217 12.1789C782.649 6.70637 788.166 2.20836 795.111 0.692114L795.147 0.684194L795.183 0.678078C804.567 -0.888706 813.64 0.329149 821.29 3.61419C837.519 9.54793 845.575 19.53 848.227 29.4188C851.381 41.1826 846.913 53.1599 841.208 60.4216L841.194 60.4386L841.18 60.4551C829.022 75.0457 786.449 91.7031 710.54 51.3273C705.11 49.3456 699.615 47.2954 694.064 45.2244L694.062 45.2235L694.057 45.2215C687.171 42.6526 680.2 40.0518 673.162 37.51C637.881 24.7691 600.767 13.4451 563.57 14.4943C553.74 14.7715 537.28 16.5976 523.33 21.4686C516.353 23.905 510.108 27.0677 505.631 31.0938C501.198 35.0805 498.545 39.8617 498.528 45.654C498.565 46.1289 498.617 46.6017 498.685 47.0712C498.781 47.6128 498.886 48.1529 498.997 48.691L498.979 48.6947C499.799 52.4161 501.576 55.8437 504.206 58.4144C507.524 61.657 512.276 63.617 518.441 63.0261C519.097 62.9632 519.771 62.8751 520.463 62.7605C522.896 62.2204 525.014 60.8451 526.554 59.0577C525.096 59.9685 523.374 60.4949 521.528 60.4949C516.281 60.4949 512.028 56.2416 512.028 50.9949C512.028 45.7482 516.281 41.4949 521.528 41.4949C524.085 41.4949 526.407 42.5054 528.114 44.1488C532.287 47.4792 532.97 52.3603 531.443 56.5788C529.89 60.8681 526.026 64.6167 521.067 65.6992C520.289 65.8691 519.494 65.9777 518.69 66.016C511.69 66.677 506.07 64.4316 502.109 60.5598C498.584 57.114 496.434 52.4448 495.723 47.5523C494.492 40.6088 494.441 32.9135 498.745 25.8112C503.411 18.1125 512.979 11.4611 530.664 7.03965C539.996 4.7067 610.388 -7.01841 708.25 46.6799C709.425 47.3247 710.592 47.9558 711.751 48.5734C733.076 56.3548 753.202 63.0079 771.744 65.7078C785.185 67.6649 798.154 67.0795 811.324 63.7613C818.976 61.8334 825.929 58.5565 831.005 53.6934C836.048 48.8613 839.298 42.4121 839.519 33.9554Z" fill="black"/>
<path fill-rule="evenodd" clip-rule="evenodd" d="M9.75278 33.9554C9.2478 14.6095 29.7039 -0.333035 53.5569 3.63095C59.637 4.96974 64.3072 8.88387 66.3129 13.3972C68.0912 17.399 67.8162 21.9246 64.4538 25.7929C64.9617 24.6298 65.2435 23.3452 65.2435 21.9949C65.2435 16.7482 60.9902 12.4949 55.7435 12.4949C50.4968 12.4949 46.2435 16.7482 46.2435 21.9949C46.2435 22.5765 46.2957 23.1459 46.3958 23.6987C46.5861 27.4477 48.7712 30.357 51.8717 31.8067C55.8343 33.6596 61.1054 33.0575 65.2604 29.2533C70.7598 24.2182 71.5226 17.733 69.0544 12.1789C66.6224 6.70637 61.1057 2.20836 54.1609 0.692114L54.1246 0.684194L54.088 0.678078C44.7049 -0.888706 35.6312 0.329149 27.9811 3.61419C11.753 9.54793 3.69644 19.53 1.04465 29.4188C-2.10986 41.1826 2.35831 53.1599 8.06396 60.4216L8.0773 60.4386L8.09109 60.4551C20.2498 75.0457 62.8229 91.7031 138.731 51.3273C144.161 49.3456 149.656 47.2954 155.207 45.2244L155.21 45.2235L155.215 45.2215C162.1 42.6526 169.071 40.0518 176.11 37.51C211.391 24.7691 248.505 13.4451 285.701 14.4943C295.532 14.7715 311.991 16.5976 325.941 21.4686C332.919 23.905 339.164 27.0677 343.641 31.0938C348.074 35.0805 350.726 39.8617 350.743 45.654C350.706 46.1289 350.654 46.6017 350.587 47.0712C350.49 47.6128 350.386 48.1529 350.275 48.691L350.293 48.6947C349.473 52.4161 347.696 55.8437 345.066 58.4144C341.748 61.657 336.995 63.617 330.83 63.0261C330.174 62.9632 329.5 62.8751 328.809 62.7605C326.375 62.2204 324.258 60.8451 322.717 59.0577C324.175 59.9685 325.898 60.4949 327.743 60.4949C332.99 60.4949 337.243 56.2416 337.243 50.9949C337.243 45.7482 332.99 41.4949 327.743 41.4949C325.186 41.4949 322.865 42.5054 321.157 44.1488C316.984 47.4792 316.301 52.3603 317.829 56.5788C319.382 60.8681 323.246 64.6167 328.204 65.6992C328.982 65.8691 329.777 65.9777 330.582 66.016C337.582 66.677 343.201 64.4316 347.162 60.5598C350.688 57.114 352.837 52.4448 353.548 47.5523C354.78 40.6088 354.831 32.9135 350.526 25.8112C345.86 18.1125 336.293 11.4611 318.607 7.03965C309.275 4.7067 238.883 -7.01841 141.022 46.6799C139.847 47.3247 138.68 47.9558 137.521 48.5734C116.195 56.3548 96.069 63.0079 77.5273 65.7078C64.0867 67.6649 51.1173 67.0795 37.9472 63.7613C30.2956 61.8334 23.3427 58.5565 18.2667 53.6934C13.223 48.8613 9.97351 42.4121 9.75278 33.9554Z" fill="black"/>
</svg>
